<svg xmlns="http://www.w3.org/2000/svg" xmlns:svg="http://www.w3.org/2000/svg" width="1093.3333740234375" height="1792.6666259765625" style=""><rect id="backgroundrect" width="100%" height="100%" x="0" y="0" fill="none" stroke="none" class="" style=""/>
 <title>pin</title>
 <g style="" class="currentLayer">
  <title>Layer 1</title>
  <path id="svg_1" clip-rule="evenodd" fill="#5dade2" fill-rule="evenodd" stroke-miterlimit="10" stroke-width="30" d="m548.4329969310761,1706.2966667461396 c-38.76599,-190.30004 -107.11603,-348.67004 -189.90301,-495.44006 c-61.40698,-108.86999 -132.54398,-209.35998 -198.36399,-314.93994 c-21.97201,-35.24298 -40.93399,-72.47601 -62.04699,-109.05298 c-42.21601,-73.13702 -76.444,-157.935 -74.26901,-267.93201 c2.125,-107.47302 33.208,-193.68402 78.02999,-264.17202 c73.719,-115.935 197.20102,-210.98899 362.88401,-235.969 c135.466,-20.42399 262.47497,14.082 352.54303,66.748 c73.59601,43.03801 130.59601,100.527 173.91595,168.28002 c45.21997,70.716 76.35999,154.25998 78.96997,263.23196 c1.34009,55.83002 -7.79992,107.53204 -20.67993,150.41803 c-13.03003,43.409 -33.98999,79.69501 -52.64001,118.45398 c-36.41004,75.659 -82.05005,144.98401 -127.85999,214.34399 c-136.43701,206.60999 -264.49603,417.31006 -320.58002,706.03003 z" class="selected" fill-opacity="1" 
      stroke="#35586C" stroke-dasharray="none" stroke-opacity="1"/>
  <circle id="svg_2" clip-rule="evenodd" fill="#35586C" fill-rule="evenodd" cx="552.8793334960938" cy="517.7136840820312" r="183.33299255371094" class="" fill-opacity="1"/>
 </g>
</svg>